<?xml version="1.0" encoding="UTF-8" standalone="no"?>
<svg width="300" height="300" viewBox="0 0 300 300" fill="none" xmlns="http://www.w3.org/2000/svg">
  <!-- Knight silhouette -->
  <path d="M240 220H60M150 180V220" 
    stroke="#C9A96A" strokeWidth="8" strokeLinecap="round" />
  
  <!-- Knight head and neck -->
  <path d="M210 130c10 0 30-10 30-50H60c0 40 20 50 30 50" 
    stroke="#C9A96A" strokeWidth="8" />
  
  <path d="M90 130v20c0 22 22 40 50 40s50-18 50-40v-20" 
    stroke="#C9A96A" strokeWidth="8" />
  
  <!-- Mane details -->
  <path d="M95 80c0-10 10-20 15-25 5-5 15-15 35-15 20 0 35 10 45 25 5 7.5 10 15 10 20" 
    stroke="#C9A96A" strokeWidth="6" fill="none" />
  
  <!-- Face details -->
  <path d="M120 90c-5 5-10 15-10 25 0 5 0 10 5 15"
    stroke="#C9A96A" strokeWidth="4" fill="none" />
  
  <!-- Eye -->
  <ellipse cx="120" cy="95" rx="3" ry="5" fill="#C9A96A" />
  
  <!-- Base line -->
  <line x1="100" y1="155" x2="200" y2="155" stroke="#C9A96A" strokeWidth="3" />
</svg>