<svg width="500" height="600" viewBox="0 0 500 600" fill="none" xmlns="http://www.w3.org/2000/svg">
  <rect width="500" height="600" fill="#1A1A1A"/>
  
  <!-- Knight Logo (Golden Horse) -->
  <g transform="translate(150, 150) scale(1.2)">
    <path d="M115 170 
           C100 170, 85 160, 80 135
           C75 110, 80 90, 100 70
           C90 80, 87 90, 92 100
           C97 110, 107 113, 115 110
           C123 107, 126 97, 122 88
           C118 79, 110 74, 100 70
           C108 67, 120 65, 130 68
           C140 71, 148 80, 151 95
           C154 110, 150 128, 140 140
           C130 152, 125 164, 125 175
           L115 170Z" 
         stroke="#C9A96A" stroke-width="4" fill="none"/>
  
    <!-- Mane Lines -->
    <path d="M102 78 
             C93 65, 90 52, 93 40"
          stroke="#C9A96A" stroke-width="4" fill="none"/>
  
    <path d="M90 76
             C81 63, 78 50, 80 37"
          stroke="#C9A96A" stroke-width="4" fill="none"/>
  
    <path d="M78 78
             C69 65, 66 52, 68 40"
          stroke="#C9A96A" stroke-width="4" fill="none"/>
  
    <!-- Base Line -->
    <line x1="75" y1="170" x2="155" y2="170" stroke="#C9A96A" stroke-width="4"/>
  
    <!-- Eye Detail -->
    <path d="M108 90 Q108 87, 105 88" stroke="#C9A96A" stroke-width="2" fill="none"/>
  </g>
  
  <!-- Text "LE" -->
  <text x="250" y="380" fill="#FFFFFF" font-family="Arial, sans-serif" font-size="40" font-weight="600" text-anchor="middle">LE</text>
  
  <!-- Text "CAVALIER D'OR" -->
  <text x="250" y="440" fill="#C9A96A" font-family="Arial, sans-serif" font-size="52" font-weight="bold" text-anchor="middle">CAVALIER D'OR</text>
  
  <!-- Text "CLUB D'ÉCHECS" -->
  <text x="250" y="500" fill="#FFFFFF" font-family="Arial, sans-serif" font-size="40" font-weight="600" text-anchor="middle">CLUB D'ÉCHECS</text>
</svg>
