<svg width="400" height="500" viewBox="0 0 400 500" fill="none" xmlns="http://www.w3.org/2000/svg">
  <!-- Horse head -->
  <g transform="translate(120, 50) scale(0.8)">
    <path d="M200 300 
           C180 300, 160 280, 150 240
           C140 200, 150 160, 180 130
           C170 145, 165 160, 170 175
           C175 190, 190 195, 200 190
           C210 185, 215 175, 210 160
           C205 145, 195 135, 185 130
           C195 125, 210 120, 225 125
           C240 130, 250 145, 255 165
           C260 185, 255 210, 240 230
           C225 250, 220 270, 220 290
           L200 300Z" 
        stroke="#C9A96A" stroke-width="6" fill="none"/>
    
    <!-- Mane -->
    <path d="M185 140 
           C175 120, 170 100, 175 80"
        stroke="#C9A96A" stroke-width="6" fill="none"/>
    
    <path d="M170 135
           C160 115, 155 95, 158 75"
        stroke="#C9A96A" stroke-width="6" fill="none"/>
    
    <path d="M155 140
           C145 120, 140 100, 142 80"
        stroke="#C9A96A" stroke-width="6" fill="none"/>
    
    <!-- Base -->
    <line x1="150" y1="300" x2="250" y2="300" stroke="#C9A96A" stroke-width="6"/>
    
    <!-- Eye -->
    <path d="M195 160 Q195 155, 190 157" stroke="#C9A96A" stroke-width="3" fill="none"/>
  </g>
  
  <!-- Text "LE" -->
  <text x="200" y="350" fill="#222222" font-family="Arial, sans-serif" font-size="30" font-weight="600" text-anchor="middle">LE</text>
  
  <!-- Text "CAVALIER D'OR" -->
  <text x="200" y="400" fill="#C9A96A" font-family="Arial, sans-serif" font-size="38" font-weight="bold" text-anchor="middle">CAVALIER D'OR</text>
  
  <!-- Text "CLUB D'ÉCHECS" -->
  <text x="200" y="450" fill="#222222" font-family="Arial, sans-serif" font-size="30" font-weight="600" text-anchor="middle">CLUB D'ÉCHECS</text>
</svg>
