<svg width="32" height="32" viewBox="0 0 32 32" fill="none" xmlns="http://www.w3.org/2000/svg">
  <path d="M15.2 4C12.8 4 11.2 5.4 11.2 7.6C11.2 8.6 11.6 9.4 12.4 10V10L12.4 10.1C11.6 10.5 10.8 11.1 10.0 11.7C9.2 12.3 8.4 13.1 7.6 14.1C6.4 15.7 5.2 17.9 4.0 20.7L4.0 20.7L4.0 20.8C3.6 22.2 3.8 23.4 4.8 24.2C5.8 25.0 6.8 25.2 8.0 25.2H24.4V23.2H8.0C7.6 23.2 7.2 23.1 6.8 22.9C6.4 22.7 6.0 22.2 6.0 21.6C7.2 18.8 8.0 16.8 9.2 15.4C9.6 14.8 10.0 14.2 10.4 13.8C11.2 13.0 12.0 12.2 12.8 11.8C13.2 12.6 13.6 13.2 14.0 13.8L14.0 13.8L14.1 13.9C14.5 14.5 14.9 15.1 15.3 15.9C14.9 16.1 14.5 16.5 14.3 16.9C14.1 17.3 14.0 17.7 14.0 18.2C14.0 18.9 14.3 19.6 14.7 20.0C15.1 20.4 15.6 20.8 16.4 20.8C17.2 20.8 17.8 20.5 18.2 20.0C18.6 19.5 18.8 18.8 18.8 18.2C18.8 17.6 18.6 17.1 18.4 16.8C18.0 16.4 17.6 16.1 17.2 15.9C16.8 15.1 16.4 14.4 16.0 13.8C15.6 13.2 15.2 12.6 14.8 11.8V11.8L14.8 11.7C15.2 11.7 15.6 11.6 16.0 11.6H17.6C18.0 11.6 18.4 11.6 18.8 11.5C19.6 11.3 20.4 11.0 21.2 10.6L21.2 10.6L21.3 10.5C22.5 10.1 23.3 9.3 23.7 8.3C24.1 7.3 24.1 6.2 24.1 5.2V5.2V5.1C24.1 4.5 23.7 4 23.2 4H15.2ZM15.2 6H22.0C22.0 6.7 21.8 7.3 21.6 7.7C21.4 8.1 21.2 8.3 20.4 8.5C19.6 8.8 19.0 9.0 18.4 9.1C17.8 9.2 17.4 9.3 17.6 9.3H16.0C15.0 9.3 14.2 9.0 13.6 8.8C13.2 8.6 13.2 8.2 13.2 7.6C13.2 6.6 14.0 6 15.2 6ZM16.4 18.0C16.4 18.2 16.4 18.4 16.4 18.4C16.4 18.4 16.4 18.8 16.4 18.8C16.4 18.8 16.4 18.8 16.4 18.8C16.4 18.8 16.4 18.8 16.4 18.8L16.4 18.8C16.4 18.8 16.4 18.8 16.4 18.8L16.4 18.8L16.4 18.8L16.4 18.0Z" fill="#C9A96A"/>
</svg>
