<svg xmlns="http://www.w3.org/2000/svg" width="32" height="32" viewBox="0 0 32 32" fill="none">
  <path d="M16 4C15.4477 4 15 4.44772 15 5V7C15 7.55228 15.4477 8 16 8C16.5523 8 17 7.55228 17 7V5C17 4.44772 16.5523 4 16 4Z" fill="#c9a96a"/>
  <path d="M12 9C11.4477 9 11 9.44772 11 10C11 10.5523 11.4477 11 12 11H20C20.5523 11 21 10.5523 21 10C21 9.44772 20.5523 9 20 9H12Z" fill="#c9a96a"/>
  <circle cx="16" cy="14" r="3" fill="#c9a96a"/>
  <path d="M8 28V25C8 21.6863 10.6863 19 14 19H18C21.3137 19 24 21.6863 24 25V28H8Z" fill="#c9a96a"/>
</svg>
